<svg width="48" height="48" viewBox="0 0 48 48" fill="none" xmlns="http://www.w3.org/2000/svg">
<g id="bi:camera-video">
<path id="Vector" d="M27.9375 12H27.9376C28.9684 11.9999 29.9642 12.3744 30.7394 13.0538C30.8536 13.1539 31.0166 13.364 31.2069 13.6969C31.3884 14.0143 31.5594 14.38 31.71 14.7331C31.8413 15.0407 31.9505 15.3227 32.0368 15.5457C32.0493 15.5779 32.0613 15.6089 32.0729 15.6385C32.1133 15.7427 32.16 15.8623 32.199 15.947C32.2098 15.9704 32.2268 16.0061 32.2485 16.0452L32.2497 16.0474C32.2613 16.0685 32.3208 16.1768 32.4251 16.2816L32.426 16.2825C32.4655 16.3222 32.6482 16.5059 32.9583 16.5624C33.145 16.5965 33.3636 16.5808 33.5744 16.4788C33.6159 16.4588 33.6542 16.4368 33.6894 16.4137L41.7127 12.8483L41.7136 12.8479C41.961 12.7377 42.232 12.6911 42.502 12.7122C42.772 12.7334 43.0324 12.8217 43.2595 12.9691C43.4867 13.1165 43.6735 13.3184 43.8028 13.5563C43.932 13.7941 43.9998 14.0605 44 14.3311C44 14.3313 44 14.3314 44 14.3316V33.918C43.9998 34.1886 43.932 34.4549 43.8027 34.6926C43.6735 34.9304 43.4869 35.1321 43.26 35.2795C43.033 35.4268 42.7729 35.5152 42.5031 35.5365C42.2334 35.5579 41.9625 35.5115 41.7153 35.4016L41.7152 35.4016L33.6893 31.8363C33.6541 31.8131 33.6159 31.7912 33.5745 31.7712C33.3636 31.6693 33.145 31.6535 32.9583 31.6876C32.6482 31.7441 32.4655 31.9278 32.426 31.9675L32.4251 31.9684C32.3208 32.0732 32.2613 32.1815 32.2497 32.2026L32.2485 32.2048C32.2268 32.2439 32.2098 32.2796 32.199 32.303C32.16 32.3877 32.1133 32.5073 32.0729 32.6115C32.0613 32.6411 32.0493 32.6721 32.0368 32.7043C31.9505 32.9273 31.8413 33.2093 31.71 33.5169C31.5594 33.87 31.3884 34.2357 31.2069 34.5531C31.0166 34.886 30.8536 35.0961 30.7394 35.1962C29.9642 35.8756 28.9684 36.2501 27.9376 36.25H27.9375H8.25C7.12283 36.25 6.04183 35.8022 5.2448 35.0052L4.53769 35.7123L5.2448 35.0052C4.44777 34.2082 4 33.1272 4 32V16.25C4 15.1228 4.44777 14.0418 5.2448 13.2448C6.04183 12.4478 7.12283 12 8.25 12H27.9375Z" stroke="#3F4149" stroke-width="2"/>
</g>
</svg>
