<svg width="48" height="49" viewBox="0 0 48 49" fill="none" xmlns="http://www.w3.org/2000/svg">
<g id="ph:microphone">
<g id="Group 35861">
<path id="Vector" d="M29.1694 30.0253C27.85 31.1687 26.0342 31.8314 24.1155 31.8333C22.1968 31.8314 20.381 31.1687 19.0616 30.0253C17.7467 28.8857 17.0406 27.3737 17.0386 25.8327V16.5C17.0386 14.9586 17.7439 13.4459 19.0592 12.3059C20.379 11.1621 22.196 10.5 24.1155 10.5C26.035 10.5 27.852 11.1621 29.1718 12.3059C30.4871 13.4459 31.1924 14.9586 31.1924 16.5L31.1924 25.8321C31.1924 25.8324 31.1924 25.8326 31.1924 25.8329C31.1903 27.3738 30.4842 28.8857 29.1694 30.0253Z" stroke="#3F4149" stroke-width="2"/>
<path id="Vector_2" d="M12 25.8464C12 28.4985 13.2764 31.0421 15.5485 32.9174C17.8206 34.7928 20.9022 35.8464 24.1154 35.8464C27.3286 35.8464 30.4102 34.7928 32.6823 32.9174C34.9543 31.0421 36.2308 28.4985 36.2308 25.8464" stroke="#3F4149" stroke-width="2" stroke-linecap="round"/>
<path id="Line 2" d="M15.0293 39.5H33.2024" stroke="#3F4149" stroke-width="2" stroke-linecap="round" stroke-linejoin="round"/>
</g>
</g>
</svg>
