<svg width="49" height="49" viewBox="0 0 49 49" fill="none" xmlns="http://www.w3.org/2000/svg">
<g id="Frame 427318917">
<path id="Vector" d="M37.4298 38.503C37.7076 38.9803 38.3198 39.1421 38.7971 38.8643C39.2744 38.5865 39.4362 37.9743 39.1584 37.497L37.4298 38.503ZM28.5817 30.4066L28.1306 29.5142C27.7625 29.7002 27.5464 30.0933 27.5865 30.5038C27.6266 30.9144 27.9146 31.2582 28.3118 31.3695L28.5817 30.4066ZM33.0317 25.8121L33.9386 26.2333L33.0317 25.8121ZM33.6642 19.4643L34.6364 19.23V19.23L33.6642 19.4643ZM14.6299 19.4643L13.6577 19.23L14.6299 19.4643ZM15.2625 25.8121L14.3555 26.2333L15.2625 25.8121ZM19.7124 30.4066L19.982 31.3696C20.3793 31.2584 20.6675 30.9146 20.7076 30.504C20.7478 30.0934 20.5317 29.7003 20.1635 29.5142L19.7124 30.4066ZM9.13563 37.4972C8.85791 37.9745 9.01977 38.5867 9.49715 38.8644C9.97453 39.1421 10.5867 38.9802 10.8644 38.5028L9.13563 37.4972ZM39.1584 37.497C36.8193 33.4776 33.1379 30.6452 28.8516 29.4437L28.3118 31.3695C32.0896 32.4285 35.3483 34.9262 37.4298 38.503L39.1584 37.497ZM29.0328 31.2991C31.193 30.2072 32.9215 28.4231 33.9386 26.2333L32.1247 25.3908C31.2977 27.1714 29.8911 28.6243 28.1306 29.5142L29.0328 31.2991ZM33.9386 26.2333C34.9557 24.0434 35.2017 21.5763 34.6364 19.23L32.692 19.6985C33.1514 21.6052 32.9517 23.6103 32.1247 25.3908L33.9386 26.2333ZM34.6364 19.23C34.0711 16.8838 32.728 14.7964 30.8248 13.3038L29.5905 14.8775C31.1405 16.0932 32.2326 17.7917 32.692 19.6985L34.6364 19.23ZM30.8248 13.3038C28.9217 11.8112 26.5693 11 24.1471 11V13C26.1228 13 28.0404 13.6617 29.5905 14.8775L30.8248 13.3038ZM24.1471 11C21.7248 11 19.3724 11.8112 17.4693 13.3038L18.7036 14.8775C20.2537 13.6617 22.1713 13 24.1471 13V11ZM17.4693 13.3038C15.5662 14.7964 14.223 16.8838 13.6577 19.23L15.6021 19.6985C16.0615 17.7917 17.1536 16.0932 18.7036 14.8775L17.4693 13.3038ZM13.6577 19.23C13.0924 21.5763 13.3384 24.0434 14.3555 26.2333L16.1694 25.3908C15.3424 23.6103 15.1427 21.6052 15.6021 19.6985L13.6577 19.23ZM14.3555 26.2333C15.3726 28.4231 17.1012 30.2072 19.2613 31.2991L20.1635 29.5142C18.403 28.6243 16.9964 27.1714 16.1694 25.3908L14.3555 26.2333ZM19.4428 29.4436C15.1562 30.6438 11.4747 33.4763 9.13563 37.4972L10.8644 38.5028C12.946 34.9247 16.2045 32.4272 19.982 31.3696L19.4428 29.4436Z" fill="#3F4149"/>
</g>
</svg>
